<svg width="40" height="40" xmlns="http://www.w3.org/2000/svg"><g fill="currentColor" fill-rule="evenodd"><path d="M19.75 32.426c-6.93 0-12.549-5.617-12.549-12.548s5.619-12.55 12.55-12.55c6.93 0 12.55 5.619 12.55 12.55 0 6.931-5.62 12.548-12.55 12.548Zm.166-32.4C8.916.027 0 8.943 0 19.943s8.917 19.916 19.916 19.916 19.915-8.917 19.915-19.916c0-11-8.916-19.915-19.915-19.915Z"/><path d="M23.904 14.135c0-.912-.516-1.627-1.469-1.627-2.856 0-4.324 5.555-4.879 7.737 2.658-.793 6.348-2.974 6.348-6.11Zm1.904 9.642c-1.825 2.697-4.364 5.157-7.776 5.157-3.611 0-5.713-2.261-5.713-5.912 0-5.91 4.363-11.703 10.513-11.703 2.064 0 4.84.833 4.84 3.333 0 4.483-7.02 5.99-10.473 6.863-.12.754-.238 1.507-.238 2.262 0 1.546.832 2.975 2.538 2.975 2.223 0 4.008-2.143 5.317-3.73l.992.755Z"/></g></svg>