<svg xmlns="http://www.w3.org/2000/svg" width="98" height="79" viewBox="0 0 98 79"><g><g><g><g><path fill="#ffdc4c" d="M59.919 59.479l19.344-19.345c2.758-2.757 7.26-2.757 10.037 0l6.49 6.51c2.756 2.757 2.756 7.259 0 10.016L76.444 76.004a6.994 6.994 0 0 1-4.745 2.068 7.028 7.028 0 0 1-5.292-2.068l-6.49-6.488a7.086 7.086 0 0 1 0-10.037z"/></g><g><path fill="#ffb339" d="M59.904 59.479l14.275-14.275.851.284c3.731 1.217 5.76 5.23 4.522 8.941l-7.908 23.643a7.02 7.02 0 0 1-5.251-2.068l-6.49-6.488a7.123 7.123 0 0 1 0-10.037z"/></g><g><path fill="#0e5dcf" d="M41.792 59.479l14.275-14.275 5.069-5.05a7.088 7.088 0 0 1 10.037 0l6.488 6.49a7.06 7.06 0 0 1 0 10.016L58.317 76.004a6.95 6.95 0 0 1-4.785 2.068 7.02 7.02 0 0 1-5.251-2.068l-6.49-6.488a7.123 7.123 0 0 1 0-10.037z"/></g><g><path fill="#152ab0" d="M41.792 59.479l14.275-14.275.85.284c3.732 1.217 5.76 5.23 4.523 8.941l-7.908 23.643a7.02 7.02 0 0 1-5.251-2.068l-6.49-6.488a7.123 7.123 0 0 1 0-10.037z"/></g><g><path fill="#ee3c2e" d="M53.05 40.146l6.49 6.49a7.094 7.094 0 0 1 0 10.031L40.2 76.007a7.093 7.093 0 0 1-10.032 0l-6.488-6.49a7.093 7.093 0 0 1 0-10.03L37.96 45.203l5.057-5.058a7.093 7.093 0 0 1 10.032 0z"/></g></g><g><g><path d="M6.107 20.338c0-4.108 2.226-5.853 5.21-5.853 2.732 0 4.683 1.653 4.683 4.867v13.773h6.106V18.594c0-6.29-3.925-9.779-8.952-9.779-3.168 0-5.624 1.171-7.047 3.306V0A6.104 6.104 0 0 0 0 6.107v27.018h6.107z"/></g><g><path d="M37.463 14.76c3.65 0 6.428 2.709 6.428 6.543 0 3.833-2.778 6.519-6.428 6.519-3.604 0-6.382-2.686-6.382-6.52 0-3.833 2.778-6.542 6.382-6.542zm0 19.03c6.955 0 12.533-5.44 12.533-12.487 0-7.048-5.578-12.488-12.533-12.488-6.956 0-12.487 5.44-12.487 12.488 0 7.047 5.531 12.487 12.487 12.487z"/></g><g><path d="M58.95 22.381l8.63 10.744h7.093l-9.802-11.96 9.504-11.707h-7.277L58.95 19.88V0h-6.106v33.125h6.106z"/></g><g><path d="M85.325 14.76c3.65 0 6.426 2.709 6.426 6.543 0 3.833-2.777 6.519-6.426 6.519-3.605 0-6.382-2.686-6.382-6.52 0-3.833 2.777-6.542 6.382-6.542zm0 19.03c6.955 0 12.533-5.44 12.533-12.487 0-7.048-5.578-12.488-12.533-12.488-6.956 0-12.488 5.44-12.488 12.488 0 7.047 5.532 12.487 12.488 12.487z"/></g><g><path d="M0 49.06V36.94h2.158v12.12z"/></g><g><path d="M7.438 47.27c-1.308 0-2.296-.965-2.296-2.343 0-1.4.988-2.34 2.296-2.34 1.331 0 2.318.94 2.318 2.34 0 1.378-.987 2.343-2.318 2.343zm2.318-5.533c-.597-.735-1.492-1.194-2.709-1.194-2.203 0-4.04 1.906-4.04 4.384 0 2.457 1.837 4.385 4.04 4.385 1.217 0 2.112-.482 2.71-1.216v.964h2.135v-8.287H9.756z"/></g><g><path d="M17.607 47.27c-1.308 0-2.295-.965-2.295-2.343 0-1.4.987-2.34 2.295-2.34 1.331 0 2.319.94 2.319 2.34 0 1.378-.988 2.343-2.319 2.343zm4.453-2.343c0-2.478-1.836-4.384-4.063-4.384-1.194 0-2.089.436-2.685 1.194v-4.292h-2.136V49.06h2.136v-.964c.596.757 1.491 1.216 2.685 1.216 2.227 0 4.063-1.928 4.063-4.385z"/></g></g></g></g></svg>