<svg width="1000" height="1000" viewBox="0 0 1000 1000" fill="none" xmlns="http://www.w3.org/2000/svg">
<path d="M785.235 631.075C735.725 339.17 744.105 340.415 711.325 147.49C692.185 34.8499 689.71 37.0099 439.775 65.9149C320.01 79.7649 254.27 86.1749 222.465 116.325C157.785 168.59 171.705 235.545 196.815 395.37C244.91 701.48 242.13 732.735 270.435 890.125C292.1 1010.58 471.375 973.185 594.075 954.535C720.795 935.275 773.76 915.495 787.16 852.365C798.5 798.955 814.575 804.115 785.225 631.085L785.235 631.075ZM326.36 96.3499C423.93 84.0499 565.865 64.6949 640.89 66.1899C714.27 67.6549 685.28 115.09 780.455 677.415C786.98 715.975 799.68 813.25 773.27 842.1C727.19 892.44 546.36 906.61 458.49 918.525C431.775 922.15 405.08 919.025 378.525 915.01C293.775 902.2 310.62 893.445 230.655 371.735C195.535 142.585 188.65 113.7 326.36 96.3449V96.3499ZM447.465 959.815C420.75 963.44 393.625 962.48 367.49 956.3C265.415 932.165 289.12 917.78 209.16 396.07C177.385 188.74 183.22 186.51 201.905 152.82C191.235 194.21 200.94 260.335 218.33 371.02C266.435 677.125 264.725 692.605 293.04 849.995C314.705 970.45 482.445 931.875 605.145 913.225C693.225 899.84 745.66 886.19 773.96 857.915C756.845 930.34 592.45 940.15 447.465 959.815Z" fill="#0E5DCF"/>
<path d="M326.36 96.3499C423.93 84.0499 565.865 64.6949 640.89 66.1899C714.27 67.6549 685.28 115.09 780.455 677.415C786.98 715.975 799.68 813.25 773.27 842.1C727.19 892.44 546.36 906.61 458.49 918.525C431.775 922.15 405.08 919.025 378.525 915.01C293.775 902.2 310.62 893.445 230.655 371.735C195.535 142.585 188.65 113.7 326.36 96.3449V96.3499Z" fill="white"/>
<path d="M447.465 959.815C420.75 963.44 393.625 962.48 367.49 956.3C265.415 932.165 289.12 917.78 209.16 396.07C177.385 188.74 183.22 186.51 201.905 152.82C191.235 194.21 200.94 260.335 218.33 371.02C266.435 677.125 264.725 692.605 293.04 849.995C314.705 970.45 482.445 931.875 605.145 913.225C693.225 899.84 745.66 886.19 773.96 857.915C756.845 930.34 592.45 940.15 447.465 959.815Z" fill="white"/>
<path d="M255.81 179.4C262.945 208.94 350.61 810.54 352.635 841.585C352.84 844.735 346.385 846 345.715 843.05C338.97 813.27 251.97 211.85 249.93 180.96C249.71 177.615 254.935 175.78 255.81 179.4Z" fill="#0E5DCF"/>
<path d="M645.36 100.39C617.315 107.825 598.185 107.26 573.475 112.905C544.935 119.425 556.83 138.805 526.18 148.095C486.2 160.21 401.69 176.595 372.18 144.395C348.95 119.05 257.8 160.91 256.85 154.05C256.51 151.615 258.885 150.335 261.19 149.5C406.515 96.7699 344.51 155.895 427.3 153.4C455.803 152.579 484.157 148.954 511.95 142.58C581.21 126.625 500.035 100.91 641.145 96.8649C642.62 96.8249 644.09 97.1749 645.355 100.39L645.36 100.385V100.39Z" fill="#0E5DCF"/>
<path d="M731.675 820.845C648.715 876.76 417.725 891.48 369.92 867.77C351.905 858.835 371.745 861.425 372.53 861.54C494.88 879.58 612.185 857.76 727.4 817.795C739.04 813.755 732.19 820.495 731.675 820.845Z" fill="#0E5DCF"/>
<path d="M434.565 117.385C439.84 95.2498 461.34 104.96 457.465 119.68C452.595 138.19 431.85 126.58 434.565 117.38V117.385Z" fill="#0E5DCF"/>
<path d="M482.435 106.035C491.705 109.895 488.92 121.815 480.15 120.06C471.505 118.325 472.555 105.045 482.435 106.035Z" fill="#0E5DCF"/>
<path d="M666.08 122.565C672.96 152.165 755.345 754.51 757.095 785.57C757.27 788.72 750.805 789.935 750.16 786.975C743.675 757.14 661.945 154.98 660.18 124.07C659.99 120.725 665.235 118.935 666.08 122.565Z" fill="#0E5DCF"/>
<path d="M620.65 745.68C632.545 744.73 630.01 742.485 637.725 795.66C638.935 803.985 637.58 799.505 461.685 822.965C452.845 824.145 448.625 825.56 447.655 818.225C441.53 772.08 437.255 769.095 445.49 768.085C456.725 766.71 587.415 748.33 620.65 745.68ZM551.07 784.22C533.145 785.45 498.295 792.71 481.1 792.975C466.78 793.195 468.605 800.695 472.625 801.08C487 802.44 534.125 797.275 551.59 791.795C555.92 790.435 565.285 783.245 551.07 784.22Z" fill="#FFDC4C"/>
<path d="M387.325 676.13C378.275 676.365 380.31 679.015 374.58 645.255C373.08 636.375 374.69 638.16 413.85 633.11C587.63 610.7 674.315 598.645 674.6 601.14C676.685 612.455 679.53 625.795 680.345 637.32C680.775 643.4 678.335 642.63 643.98 646.71C643.81 646.73 395.67 675.915 387.33 676.13H387.325ZM668.95 607.7C597.865 619.365 378.52 641.13 379.58 646.65C384.14 670.41 382.755 670.695 387.035 670.14C456.37 661.205 663.96 637.595 669.92 637.205C676.905 636.745 676.305 637.51 671.215 611.24C670.865 609.445 670.535 607.295 668.95 607.7Z" fill="#FFDC4C"/>
<path d="M659.12 631.555C658.65 635.07 655.72 633.47 653.09 631.865C647.385 628.38 647.69 632.525 645.785 633.71C643.88 634.895 642.405 637.86 639.955 635.955C637.245 633.845 639.935 631.775 641.165 630.115C645.945 623.665 635.225 625.955 637.99 620.495C640.755 615.035 645.18 626.665 650.775 618.97C651.995 617.295 653.73 615.7 655.815 617.535C657.77 619.255 656.355 621.02 654.975 622.325C649.165 627.84 658.18 627.395 659.115 631.555H659.12Z" fill="#FFDC4C"/>
<path d="M405.25 657.12C408.265 657.52 412.68 658.11 412.535 661.83C412.41 665.075 408.295 662.84 396.5 665.7C390.405 667.18 393.315 656.715 405.25 657.12Z" fill="#FFDC4C"/>
<path d="M401.965 655.425C393.59 655.675 393.225 644.975 400.6 644.805C408.4 644.625 407.825 654.505 401.965 655.425Z" fill="#FFDC4C"/>
<path d="M443.83 714.635C443.77 716.06 443.97 717.785 442.18 718.2C438.03 719.15 440.66 710.585 435.91 712.98C433.595 714.15 429.345 711.88 429.125 716.78C429.055 718.335 429.405 720.275 427.25 720.56C423.75 721.025 425.985 713.905 421.66 714.96C419.375 715.52 416.54 714.3 415.06 717.585C410.2 728.295 399.33 723.455 398.17 716.655C396.845 708.89 406.605 703.45 412.07 708.48C415.605 711.73 416.2 709.995 438.255 707.27C442.645 706.73 443.745 708.27 443.835 714.625V714.635H443.83ZM406.735 718.385C412.415 717.12 410.49 711.145 406.285 710.98C401.385 710.785 401.255 718.335 406.735 718.385Z" fill="#FFDC4C"/>
<path d="M395.9 736.12C386.85 736.355 388.885 739.005 383.155 705.245C381.655 696.365 383.265 698.15 422.425 693.1C596.205 670.69 683.14 658.2 683.425 660.695C685.51 672.01 688.105 685.785 688.92 697.31C689.35 703.39 686.91 702.62 652.555 706.7C652.385 706.72 404.245 735.905 395.905 736.12H395.9ZM677.525 667.69C606.44 679.355 387.095 701.12 388.155 706.64C392.715 730.4 391.33 730.685 395.61 730.13C464.945 721.195 672.535 697.585 678.495 697.195C685.48 696.735 684.88 697.5 679.79 671.23C679.44 669.435 679.11 667.285 677.525 667.69Z" fill="#FFDC4C"/>
<path d="M667.705 691.53C667.235 695.045 664.305 693.445 661.675 691.84C655.97 688.355 656.275 692.5 654.37 693.685C652.465 694.87 650.99 697.835 648.54 695.93C645.83 693.82 648.52 691.75 649.75 690.09C654.53 683.64 643.81 685.93 646.575 680.47C649.34 675.01 653.765 686.64 659.36 678.945C660.58 677.27 662.315 675.675 664.4 677.51C666.355 679.23 664.94 680.995 663.56 682.3C657.75 687.815 666.765 687.37 667.7 691.53H667.705Z" fill="#FFDC4C"/>
<path d="M460.64 710.235C460.89 701.335 473.69 702.835 473.21 710.72C472.72 718.83 460.415 718.44 460.64 710.235Z" fill="#FFDC4C"/>
<path d="M481.265 707.17C481.515 698.27 494.315 699.77 493.835 707.655C493.345 715.765 481.04 715.375 481.265 707.17Z" fill="#FFDC4C"/>
<path d="M503.365 704.015C503.61 695.115 516.41 696.615 515.935 704.5C515.445 712.61 503.14 712.22 503.365 704.015Z" fill="#FFDC4C"/>
<path d="M427.42 652.225C427.665 643.325 440.465 644.825 439.99 652.71C439.5 660.82 427.195 660.43 427.42 652.225Z" fill="#FFDC4C"/>
<path d="M448.05 649.165C448.295 640.265 461.095 641.765 460.62 649.65C460.13 657.76 447.825 657.37 448.05 649.165Z" fill="#FFDC4C"/>
<path d="M470.15 646.01C470.39 637.11 483.19 638.61 482.715 646.495C482.225 654.605 469.92 654.215 470.145 646.01H470.15Z" fill="#FFDC4C"/>
<path d="M490.795 642.945C491.035 634.045 503.85 635.545 503.375 643.43C502.885 651.54 490.575 651.15 490.795 642.945Z" fill="#FFDC4C"/>
<path d="M519.37 303.22C520.72 302.84 522.3 302.62 524.145 302.62C565.905 302.62 590.36 355.72 562.295 388.735C557.99 393.8 550.475 400.185 543.89 399.045C542.412 402.224 540.277 405.055 537.625 407.35C538.38 413.64 539.1 419.905 539.79 426.1C541.3 426.135 543.14 426.595 545.35 427.785C573.925 443.17 596.575 440.9 610.845 441.94C602.955 371.455 583.15 293.345 547.525 251.36C525.11 224.94 494.525 209.335 464.8 226.005C465.36 226.44 466.115 227.05 467.03 227.815C483.44 239.475 508.495 269.615 516.03 292.245C517.185 295.715 518.3 299.385 519.37 303.22Z" fill="#0E5DCF"/>
<path d="M614.845 503.07C607.92 505.475 599.38 505.8 590.905 505.8C581.165 505.8 559.8 505.485 547.625 501.07C550.385 526.055 552.845 542.28 555.795 541.68C622.295 528.16 616.04 530.375 614.91 511.495C614.91 508.735 614.89 505.925 614.845 503.07Z" fill="#0E5DCF"/>
<path d="M522.83 413.2C514.435 413.565 507.52 409.285 509.435 402.55C505.425 399.975 504.64 396.14 505.94 393.015C506.74 391.09 506.905 392.685 505.59 390.725C504.385 388.925 504.015 386.88 504.56 384.94C498.48 379.8 502.365 373.865 507.21 368C509.36 365.4 512.08 363.49 515.145 362.325C514.679 360.741 514.686 359.055 515.165 357.475C508.92 317.25 501.64 283.175 493.72 271.035C485.385 258.26 487.52 273.24 496.43 351.84C501.535 396.84 502.55 396.39 498.66 395.995C495.9 395.715 494.83 395.91 494.16 393.025C493.4 389.785 482.265 298.825 478.74 259.3C477.85 249.32 463.625 238.565 453.655 232.4C447.295 228.46 455.48 230.09 489.04 560.345C489.61 565.945 492.09 564.57 509.505 567.52C514.77 568.41 513.525 566.42 511.015 544.655C503.465 479.115 500.235 453.825 499.365 438.93C499.24 436.885 503.275 431.91 504.6 432.465C505.74 432.94 506.475 432.305 519.85 566.66C520.18 570 519.725 568.905 537.505 571.97C540.895 572.555 540.72 573.255 536.89 545.3C535.58 535.75 530.49 475.36 522.82 413.2H522.83ZM494.09 426.13C479.165 425.635 479.62 402.315 495.92 402.49C511.215 402.655 510.08 426.66 494.09 426.13Z" fill="#FFDC4C"/>
<path d="M440.855 227.4C450.855 230.185 438.44 227.705 481.275 559.635C481.9 564.475 479.765 562.7 459.095 559.995C453.05 559.205 434.905 370.785 414.19 231.275C413.8 228.655 414.11 227.045 417.47 226.795C425.355 226.2 433.045 225.225 440.855 227.4Z" fill="#FFDC4C"/>
<path d="M443.47 559.405C436.77 556.795 425.84 560.165 424.99 553.025C415.115 470.175 421.28 518.265 406.615 403.065C386.7 246.64 384.89 249.64 387.335 246.525C391.97 240.625 397.6 235.845 403.965 231.89C408.22 229.24 403.7 211.19 433.36 450.99C447.41 564.58 447.88 561.125 443.475 559.41L443.47 559.405Z" fill="#FFDC4C"/>
<path d="M377.965 258.525C381.49 251.26 380.955 265.43 405.745 465.095C417.48 559.62 419.035 555.16 412.055 554.275C395.555 552.18 398.765 554.8 395.16 535.685C385.635 485.23 355.565 304.725 377.965 258.525Z" fill="#FFDC4C"/>
<path d="M584.215 499.89C578.41 499.735 543.175 497.875 544.525 492.225C545.39 488.595 569.395 496.97 599.765 493.86C614.115 492.39 617.465 491.2 617.935 485.185C618.88 473.12 616.735 461.38 616.745 458.7C616.785 445.615 593.98 463.025 541.36 438.515C538.955 437.395 537.53 434.815 538.33 432.985C539.37 430.6 541.945 432.66 543.47 433.355C602.545 460.415 620.305 435.82 622.835 458.595C626.635 492.79 626.19 500.995 584.215 499.89Z" fill="#0E5DCF"/>
<path d="M658.645 499.325C657.775 504.595 656.585 506.35 652.635 502.39C630.715 480.415 630.26 485.265 629.86 479.89C628.145 456.88 621.565 449.5 631.205 450.065C646.825 450.98 650.27 459.94 658.645 499.325Z" fill="#0E5DCF"/>
<path d="M521.225 312.93C519.63 312.91 518.945 312.28 518.945 310.62C518.945 304.215 561.815 310.68 567.825 347.735C572.83 378.59 547.6 397.18 543.89 392.76C541.65 390.095 544.865 388.805 546.44 387.5C581.15 358.645 555.465 313.37 521.23 312.935L521.225 312.93Z" fill="#0E5DCF"/>
<path d="M511.71 371.71C521.565 359.765 545.255 371.155 540.365 391.68C535.66 411.425 514.22 408.66 514.98 404.28C515.62 400.59 529.21 407.325 534.9 395.36C541.48 381.52 533.18 367.43 516.915 370.95C515.24 371.31 513.66 372.87 511.71 371.71Z" fill="#0E5DCF"/>
<path d="M539.9 348.45C530.1 353.34 524.33 363.935 521.33 361.555C517.28 358.34 531.155 346.61 538.07 345.59C540.675 345.205 543.025 346.89 539.9 348.45Z" fill="#0E5DCF"/>
<path d="M517.095 383.28C512.935 383.36 506.315 380.63 507.395 378.295C509.08 374.655 514.105 382.575 525.34 377.895C529 376.37 527.355 383.085 517.095 383.28Z" fill="#0E5DCF"/>
<path d="M521.03 400.22C517.855 399.745 510.125 398.05 511.295 395.27C512.365 392.735 520.09 399.045 528.07 394.97C530.23 393.87 531.72 399.155 521.03 400.22Z" fill="#0E5DCF"/>
<path d="M519.805 391.45C515.025 391.07 509.615 388.2 510.165 386.45C510.985 383.845 514.76 387.73 521.03 387.67C528.315 387.6 528.575 385.06 529.305 387.25C530.14 389.765 522.45 391.165 519.81 391.45H519.805Z" fill="#0E5DCF"/>
</svg>
